<svg xmlns="http://www.w3.org/2000/svg" viewBox="0 0 64 64" role="img" aria-label="Shay">
  <defs>
    <linearGradient id="shayGrad" x1="0" y1="0" x2="1" y2="1">
      <stop offset="0%" stop-color="#1E5BFF"/>
      <stop offset="100%" stop-color="#0D3FCC"/>
    </linearGradient>
  </defs>
  <rect x="2" y="2" width="60" height="60" rx="14" fill="url(#shayGrad)"/>
  <path d="M42 22c-2-3-5.5-4.5-10-4.5-6 0-10 3-10 7.5 0 4 3 6 9 7.5 5 1.2 6.5 2 6.5 3.8 0 1.8-2 3-5 3-3.5 0-6-1.5-7.5-4l-4 3c2.2 4 6.5 6 11.5 6 6.5 0 10.5-3 10.5-8 0-4.3-3-6.3-9.5-7.8-4.5-1-6-1.8-6-3.5 0-1.7 1.8-2.8 4.8-2.8 2.8 0 4.8 1 6.2 3z" fill="#FEFCF7"/>
  <g transform="translate(48 14)">
    <path d="M0 -6 L1.4 -1.4 L6 0 L1.4 1.4 L0 6 L-1.4 1.4 L-6 0 L-1.4 -1.4 Z" fill="#F5C542"/>
    <circle cx="0" cy="0" r="1.6" fill="#FEFCF7"/>
  </g>
</svg>
