<svg xmlns="http://www.w3.org/2000/svg" viewBox="0 0 200 40" role="img" aria-label="FAMtastic">
  <!-- Starburst icon — 8-point star, red -->
  <g transform="translate(20,20)">
    <path d="M0,-16 L2.4,-6.4 L8,-11.3 L5.6,-1.6 L12.8,-5.6 L8.8,3.2 L16,0 L10.4,7.2 L16,12.8 L8,11.2 L11.2,18.4 L4,15.2 L4,22.4 L-1.6,17.6 L-3.2,24 L-7.2,17.6 L-11.2,22.4 L-11.2,15.2 L-17.6,17.6 L-14.4,10.4 L-20.8,11.2 L-16,5.6 L-22.4,0 L-14.4,-3.2 L-19.2,-8.8 L-11.2,-7.2 L-13.6,-15.2 L-6.4,-11.2 L-6.4,-19.2 L-0.8,-13.6 Z"
          fill="#e8352a" opacity="0.92"/>
    <circle cx="0" cy="2" r="5" fill="#fbbf24"/>
  </g>
  <!-- Wordmark -->
  <text x="46" y="27" font-family="'Inter', 'SF Pro Display', system-ui, sans-serif" font-size="18" font-weight="800" letter-spacing="-0.5" fill="#e8352a">FAM</text>
  <text x="88" y="27" font-family="'Inter', 'SF Pro Display', system-ui, sans-serif" font-size="18" font-weight="400" letter-spacing="0" fill="#fbbf24">tastic</text>
</svg>
